<svg fill="none" viewBox="0 0 25 25" xmlns="http://www.w3.org/2000/svg"><path clip-rule="evenodd" d="M15.748 24.947c8.342-.24 9.163-1.997 9.163-11.966 0-11-1-12-12-12s-12 1-12 12c0 9.995.826 11.734 9.228 11.968a.503.503 0 0 0 .1-.32c0-.25-.01-2.817-.015-3.7-3.037.64-3.678-1.419-3.678-1.419-.497-1.222-1.213-1.548-1.213-1.548-.99-.656.075-.643.075-.643 1.096.075 1.673 1.091 1.673 1.091.974 1.617 2.556 1.15 3.178.88.1-.684.381-1.15.693-1.415-2.425-.267-4.974-1.175-4.974-5.23 0-1.155.426-2.099 1.124-2.839-.113-.268-.487-1.344.107-2.8 0 0 .917-.285 3.003 1.084a10.755 10.755 0 0 1 2.734-.356c.927.004 1.861.121 2.734.356 2.085-1.369 3-1.084 3-1.084.596 1.456.221 2.532.108 2.8.7.74 1.123 1.684 1.123 2.84 0 4.064-2.553 4.96-4.986 5.22.392.327.741.973.741 1.96a1298.915 1298.915 0 0 1-.013 4.802c0 .11.03.224.095.32Z" fill="#666666" fill-rule="evenodd" class="fill-000000"></path></svg>