<svg viewBox="0 0 64 64" xmlns="http://www.w3.org/2000/svg"><g data-name="Layer 6"><path d="M50.43 17.31v29.08A4.64 4.64 0 0 1 45.81 51H17.22a4.64 4.64 0 0 1-4.62-4.62V17.31a4.64 4.64 0 0 1 4.63-4.63h28.58" fill="none" stroke="#757575" stroke-linecap="round" stroke-linejoin="round" stroke-width="2px" class="stroke-000000"></path><circle cx="50.48" cy="13.98" r="1" fill="#757575" class="fill-000000"></circle><path d="M28.92 28.08h5v1.64h.1c.64-1 1.7-2 4.31-2 3.23 0 5.64 2.13 5.64 6.77v9.35h-4.9v-8.73c0-2-.71-3.42-2.48-3.42a2.62 2.62 0 0 0-2.48 1.84 3.5 3.5 0 0 0-.11 1.22v9.1h-4.9V32M25.2 32.08v11.9h-4.89v-15.9h4.89M25.52 22.75A2.77 2.77 0 1 1 22.75 20" fill="none" stroke="#757575" stroke-linecap="round" stroke-linejoin="round" stroke-width="2px" class="stroke-000000"></path></g></svg>