<svg viewBox="0 0 32 32" xmlns="http://www.w3.org/2000/svg"><g data-name="mail email e-mail letter"><path d="M28 13a1 1 0 0 0-1 1v8a1 1 0 0 1-1 1H6a1 1 0 0 1-1-1v-8a1 1 0 0 0-2 0v8a3 3 0 0 0 .88 2.12A3 3 0 0 0 6 25h20a3 3 0 0 0 2.12-.88A3 3 0 0 0 29 22v-8a1 1 0 0 0-1-1Z" fill="#595959" class="fill-000000"></path><path d="M15.4 18.8a1 1 0 0 0 1.2 0l11.81-8.86a1 1 0 0 0 .3-1.23 3.06 3.06 0 0 0-.59-.83A3 3 0 0 0 26 7H6a3 3 0 0 0-2.12.88 3.06 3.06 0 0 0-.59.83 1 1 0 0 0 .3 1.23ZM6 9h20a.9.9 0 0 1 .28 0L16 16.75 5.72 9A.9.9 0 0 1 6 9Z" fill="#595959" class="fill-000000"></path></g></svg>